<svg width="128" height="77" viewBox="0 0 128 77" fill="none" xmlns="http://www.w3.org/2000/svg">
<g filter="url(#filter0_d)">
<path fill-rule="evenodd" clip-rule="evenodd" d="M72.7768 12.0197C72.8967 12.1901 72.9998 12.3737 73.0839 12.5686C78.0438 13.9067 81.6952 18.3349 81.6952 23.5771C81.6952 29.8757 76.4243 35 69.9455 35C66.563 35 63.5104 33.6028 61.3646 31.3715H53.2193C51.4662 31.3715 50.04 29.9849 50.04 28.2806C50.04 27.3018 50.5109 26.4283 51.2436 25.8616C50.5109 25.2949 50.04 24.4215 50.04 23.4426C50.04 22.4638 50.5109 21.5904 51.2436 21.0237C50.5109 20.457 50.04 19.5835 50.04 18.6047C50.04 17.6259 50.5109 16.7525 51.2436 16.1857C50.5109 15.619 50.04 14.7456 50.04 13.7668C50.04 12.0625 51.4662 10.6759 53.2193 10.6759H55.0218C54.6699 10.1785 54.4634 9.57679 54.4634 8.92884C54.4634 8.28089 54.67 7.67917 55.0218 7.18181H49.487C47.734 7.18181 46.3077 5.7952 46.3077 4.0909C46.3077 2.38661 47.734 1 49.487 1H66.4205C68.1735 1 69.5998 2.38661 69.5998 4.0909C69.5998 4.73885 69.3932 5.34057 69.0413 5.83794H74.5762C76.3292 5.83794 77.7555 7.22454 77.7555 8.92884C77.7555 10.6331 76.3292 12.0197 74.5762 12.0197H72.7768ZM76.3732 8.92884C76.3732 7.96555 75.5671 7.18181 74.5762 7.18181H57.6427C56.6518 7.18181 55.8457 7.96555 55.8457 8.92884C55.8457 9.89213 56.6518 10.6759 57.6427 10.6759H70.1527H74.5762C75.5671 10.6759 76.3732 9.89213 76.3732 8.92884ZM47.69 4.0909C47.69 5.05419 48.4961 5.83794 49.487 5.83794H66.4205C67.4114 5.83794 68.2175 5.05419 68.2175 4.0909C68.2175 3.12762 67.4114 2.34387 66.4205 2.34387H49.487C48.4961 2.34387 47.69 3.12762 47.69 4.0909ZM70.1527 12.0197H53.2193C52.2285 12.0197 51.4223 12.8035 51.4223 13.7668C51.4223 14.7301 52.2285 15.5138 53.2193 15.5138H61.6309C63.7592 13.4395 66.7008 12.1542 69.9455 12.1542C70.2794 12.1542 70.6099 12.1686 70.9369 12.1953C70.6977 12.0826 70.4311 12.0197 70.1527 12.0197ZM60.4499 16.8577H53.2193C52.2284 16.8577 51.4223 17.6414 51.4223 18.6047C51.4223 19.5681 52.2284 20.3517 53.2193 20.3517H58.6734C59.0586 19.0814 59.6653 17.9027 60.4499 16.8577ZM58.356 21.6956H53.2193C52.2284 21.6956 51.4223 22.4793 51.4223 23.4426C51.4223 24.406 52.2284 25.1897 53.2193 25.1897H58.3134C58.2364 24.6627 58.1957 24.1245 58.1957 23.5771C58.1957 22.9363 58.2512 22.3079 58.356 21.6956ZM51.4223 28.2806C51.4223 29.2439 52.2284 30.0276 53.2193 30.0276H60.2539C59.5109 28.9758 58.9443 27.7977 58.5956 26.5335H53.2193C52.2284 26.5335 51.4223 27.3172 51.4223 28.2806ZM59.578 23.5771C59.578 29.1347 64.2289 33.6561 69.9455 33.6561C75.662 33.6561 80.3129 29.1347 80.3129 23.5771C80.3129 18.0195 75.662 13.4981 69.9455 13.4981C64.2289 13.4981 59.578 18.0195 59.578 23.5771ZM68.1824 21.2802C68.1824 22.0967 68.9718 22.7609 69.9421 22.7609C71.7945 22.7609 73.3016 24.1228 73.3016 25.7969C73.3016 27.2219 72.2094 28.42 70.742 28.7452V29.0811C70.742 29.5105 70.3838 29.8588 69.9421 29.8588C69.5005 29.8588 69.1423 29.5105 69.1423 29.0811V28.7452C67.6748 28.42 66.5827 27.2219 66.5827 25.7969C66.5827 25.3675 66.9409 25.0193 67.3826 25.0193C67.8243 25.0193 68.1824 25.3675 68.1824 25.7969C68.1824 26.6134 68.9718 27.2776 69.9421 27.2776C70.9125 27.2776 71.7018 26.6134 71.7018 25.7969C71.7018 24.9804 70.9125 24.3161 69.9421 24.3161C68.0897 24.3161 66.5827 22.9542 66.5827 21.2802C66.5827 19.8553 67.6748 18.6571 69.1423 18.3319V17.9275C69.1423 17.4981 69.5005 17.1499 69.9421 17.1499C70.3838 17.1499 70.742 17.4981 70.742 17.9275V18.3319C72.2094 18.6571 73.3016 19.8553 73.3016 21.2802C73.3016 21.7096 72.9434 22.0579 72.5017 22.0579C72.06 22.0579 71.7018 21.7096 71.7018 21.2802C71.7018 20.4637 70.9125 19.7995 69.9421 19.7995C68.9718 19.7995 68.1824 20.4637 68.1824 21.2802Z" fill="#FF872C"/>
<path d="M73.0839 12.5686L72.8543 12.6677L72.9022 12.7785L73.0188 12.8099L73.0839 12.5686ZM72.7768 12.0197V11.7697H72.2951L72.5724 12.1637L72.7768 12.0197ZM61.3646 31.3715L61.5448 31.1982L61.4711 31.1215H61.3646V31.3715ZM51.2436 25.8616L51.3966 26.0594L51.6522 25.8616L51.3966 25.6639L51.2436 25.8616ZM51.2436 21.0237L51.3966 21.2214L51.6522 21.0237L51.3966 20.8259L51.2436 21.0237ZM51.2436 16.1857L51.3966 16.3835L51.6522 16.1857L51.3966 15.988L51.2436 16.1857ZM55.0218 10.6759V10.9259H55.505L55.2259 10.5315L55.0218 10.6759ZM55.0218 7.18181L55.2259 7.32619L55.5049 6.93181H55.0218V7.18181ZM69.0413 5.83794L68.8373 5.69355L68.5582 6.08794H69.0413V5.83794ZM61.6309 15.5138V15.7638H61.7325L61.8053 15.6928L61.6309 15.5138ZM70.9369 12.1953L70.9165 12.4444L71.0434 11.9691L70.9369 12.1953ZM60.4499 16.8577L60.6498 17.0078L60.9502 16.6077H60.4499V16.8577ZM58.6734 20.3517V20.6017H58.8588L58.9126 20.4243L58.6734 20.3517ZM58.356 21.6956L58.6024 21.7378L58.6524 21.4456H58.356V21.6956ZM58.3134 25.1897V25.4397H58.6025L58.5607 25.1536L58.3134 25.1897ZM60.2539 30.0276V30.2776H60.7365L60.4581 29.8834L60.2539 30.0276ZM58.5956 26.5335L58.8366 26.4671L58.7859 26.2835H58.5956V26.5335ZM70.742 28.7452L70.6879 28.5011L70.492 28.5445V28.7452H70.742ZM69.1423 28.7452H69.3923V28.5445L69.1964 28.5011L69.1423 28.7452ZM69.1423 18.3319L69.1964 18.576L69.3923 18.5326V18.3319H69.1423ZM70.742 18.3319H70.492V18.5326L70.6879 18.576L70.742 18.3319ZM73.3134 12.4695C73.2225 12.2589 73.111 12.0602 72.9812 11.8758L72.5724 12.1637C72.6824 12.3199 72.777 12.4886 72.8543 12.6677L73.3134 12.4695ZM81.9452 23.5771C81.9452 18.2145 78.2107 13.6928 73.149 12.3272L73.0188 12.8099C77.8768 14.1206 81.4452 18.4552 81.4452 23.5771H81.9452ZM69.9455 35.25C76.5556 35.25 81.9452 30.0204 81.9452 23.5771H81.4452C81.4452 29.731 76.2929 34.75 69.9455 34.75V35.25ZM61.1844 31.5448C63.376 33.8237 66.4931 35.25 69.9455 35.25V34.75C66.6329 34.75 63.6448 33.3819 61.5448 31.1982L61.1844 31.5448ZM53.2193 31.6215H61.3646V31.1215H53.2193V31.6215ZM49.79 28.2806C49.79 30.1295 51.3349 31.6215 53.2193 31.6215V31.1215C51.5976 31.1215 50.29 29.8402 50.29 28.2806H49.79ZM51.0907 25.6639C50.301 26.2746 49.79 27.2192 49.79 28.2806H50.29C50.29 27.3844 50.7208 26.582 51.3966 26.0594L51.0907 25.6639ZM49.79 23.4426C49.79 24.5041 50.301 25.4486 51.0907 26.0594L51.3966 25.6639C50.7208 25.1412 50.29 24.3388 50.29 23.4426H49.79ZM51.0907 20.8259C50.301 21.4367 49.79 22.3812 49.79 23.4426H50.29C50.29 22.5465 50.7208 21.7441 51.3966 21.2214L51.0907 20.8259ZM49.79 18.6047C49.79 19.6661 50.301 20.6107 51.0907 21.2214L51.3966 20.8259C50.7208 20.3033 50.29 19.5009 50.29 18.6047H49.79ZM51.0907 15.988C50.301 16.5987 49.79 17.5433 49.79 18.6047H50.29C50.29 17.7085 50.7208 16.9062 51.3966 16.3835L51.0907 15.988ZM49.79 13.7668C49.79 14.8282 50.301 15.7727 51.0907 16.3835L51.3966 15.988C50.7208 15.4653 50.29 14.663 50.29 13.7668H49.79ZM53.2193 10.4259C51.3349 10.4259 49.79 11.9178 49.79 13.7668H50.29C50.29 12.2071 51.5976 10.9259 53.2193 10.9259V10.4259ZM55.0218 10.4259H53.2193V10.9259H55.0218V10.4259ZM54.2134 8.92884C54.2134 9.63092 54.4374 10.2827 54.8178 10.8203L55.2259 10.5315C54.9024 10.0743 54.7134 9.52265 54.7134 8.92884H54.2134ZM54.8178 7.03742C54.4375 7.57498 54.2134 8.22674 54.2134 8.92884H54.7134C54.7134 8.33504 54.9025 7.78337 55.2259 7.32619L54.8178 7.03742ZM49.487 7.43181H55.0218V6.93181H49.487V7.43181ZM46.0577 4.0909C46.0577 5.93987 47.6026 7.43181 49.487 7.43181V6.93181C47.8653 6.93181 46.5577 5.65053 46.5577 4.0909H46.0577ZM49.487 0.75C47.6026 0.75 46.0577 2.24193 46.0577 4.0909H46.5577C46.5577 2.53128 47.8653 1.25 49.487 1.25V0.75ZM66.4205 0.75H49.487V1.25H66.4205V0.75ZM69.8498 4.0909C69.8498 2.24193 68.3049 0.75 66.4205 0.75V1.25C68.0421 1.25 69.3498 2.53128 69.3498 4.0909H69.8498ZM69.2454 5.98232C69.6257 5.44476 69.8498 4.793 69.8498 4.0909H69.3498C69.3498 4.6847 69.1607 5.23637 68.8373 5.69355L69.2454 5.98232ZM74.5762 5.58794H69.0413V6.08794H74.5762V5.58794ZM78.0055 8.92884C78.0055 7.07987 76.4606 5.58794 74.5762 5.58794V6.08794C76.1978 6.08794 77.5055 7.36921 77.5055 8.92884H78.0055ZM74.5762 12.2697C76.4606 12.2697 78.0055 10.7778 78.0055 8.92884H77.5055C77.5055 10.4885 76.1978 11.7697 74.5762 11.7697V12.2697ZM72.7768 12.2697H74.5762V11.7697H72.7768V12.2697ZM74.5762 7.43181C75.4357 7.43181 76.1232 8.11022 76.1232 8.92884H76.6232C76.6232 7.82089 75.6985 6.93181 74.5762 6.93181V7.43181ZM57.6427 7.43181H74.5762V6.93181H57.6427V7.43181ZM56.0957 8.92884C56.0957 8.11022 56.7832 7.43181 57.6427 7.43181V6.93181C56.5204 6.93181 55.5957 7.82089 55.5957 8.92884H56.0957ZM57.6427 10.4259C56.7832 10.4259 56.0957 9.74746 56.0957 8.92884H55.5957C55.5957 10.0368 56.5204 10.9259 57.6427 10.9259V10.4259ZM70.1527 10.4259H57.6427V10.9259H70.1527V10.4259ZM74.5762 10.4259H70.1527V10.9259H74.5762V10.4259ZM76.1232 8.92884C76.1232 9.74746 75.4357 10.4259 74.5762 10.4259V10.9259C75.6985 10.9259 76.6232 10.0368 76.6232 8.92884H76.1232ZM49.487 5.58794C48.6275 5.58794 47.94 4.90952 47.94 4.0909H47.44C47.44 5.19886 48.3647 6.08794 49.487 6.08794V5.58794ZM66.4205 5.58794H49.487V6.08794H66.4205V5.58794ZM67.9675 4.0909C67.9675 4.90952 67.28 5.58794 66.4205 5.58794V6.08794C67.5428 6.08794 68.4675 5.19886 68.4675 4.0909H67.9675ZM66.4205 2.59387C67.28 2.59387 67.9675 3.27228 67.9675 4.0909H68.4675C68.4675 2.98295 67.5428 2.09387 66.4205 2.09387V2.59387ZM49.487 2.59387H66.4205V2.09387H49.487V2.59387ZM47.94 4.0909C47.94 3.27228 48.6275 2.59387 49.487 2.59387V2.09387C48.3647 2.09387 47.44 2.98295 47.44 4.0909H47.94ZM53.2193 12.2697H70.1527V11.7697H53.2193V12.2697ZM51.6723 13.7668C51.6723 12.9482 52.3598 12.2697 53.2193 12.2697V11.7697C52.0971 11.7697 51.1723 12.6588 51.1723 13.7668H51.6723ZM53.2193 15.2638C52.3598 15.2638 51.6723 14.5854 51.6723 13.7668H51.1723C51.1723 14.8747 52.0971 15.7638 53.2193 15.7638V15.2638ZM61.6309 15.2638H53.2193V15.7638H61.6309V15.2638ZM69.9455 11.9042C66.6338 11.9042 63.6301 13.2163 61.4564 15.3348L61.8053 15.6928C63.8883 13.6628 66.7678 12.4042 69.9455 12.4042V11.9042ZM70.9572 11.9461C70.6239 11.9189 70.2866 11.9042 69.9455 11.9042V12.4042C70.2722 12.4042 70.596 12.4183 70.9165 12.4444L70.9572 11.9461ZM70.1527 12.2697C70.3933 12.2697 70.6236 12.3241 70.8303 12.4214L71.0434 11.9691C70.7719 11.8412 70.469 11.7697 70.1527 11.7697V12.2697ZM53.2193 17.1077H60.4499V16.6077H53.2193V17.1077ZM51.6723 18.6047C51.6723 17.7861 52.3598 17.1077 53.2193 17.1077V16.6077C52.097 16.6077 51.1723 17.4968 51.1723 18.6047H51.6723ZM53.2193 20.1017C52.3598 20.1017 51.6723 19.4234 51.6723 18.6047H51.1723C51.1723 19.7127 52.097 20.6017 53.2193 20.6017V20.1017ZM58.6734 20.1017H53.2193V20.6017H58.6734V20.1017ZM60.2499 16.7076C59.4483 17.7753 58.8281 18.9802 58.4341 20.2792L58.9126 20.4243C59.2892 19.1827 59.8822 18.0301 60.6498 17.0078L60.2499 16.7076ZM53.2193 21.9456H58.356V21.4456H53.2193V21.9456ZM51.6723 23.4426C51.6723 22.624 52.3598 21.9456 53.2193 21.9456V21.4456C52.097 21.4456 51.1723 22.3346 51.1723 23.4426H51.6723ZM53.2193 24.9397C52.3598 24.9397 51.6723 24.2613 51.6723 23.4426H51.1723C51.1723 24.5507 52.097 25.4397 53.2193 25.4397V24.9397ZM58.3134 24.9397H53.2193V25.4397H58.3134V24.9397ZM57.9457 23.5771C57.9457 24.1369 57.9874 24.6872 58.066 25.2258L58.5607 25.1536C58.4855 24.6382 58.4457 24.112 58.4457 23.5771H57.9457ZM58.1096 21.6534C58.0024 22.2794 57.9457 22.9218 57.9457 23.5771H58.4457C58.4457 22.9507 58.4999 22.3365 58.6024 21.7378L58.1096 21.6534ZM53.2193 29.7776C52.3598 29.7776 51.6723 29.0993 51.6723 28.2806H51.1723C51.1723 29.3886 52.097 30.2776 53.2193 30.2776V29.7776ZM60.2539 29.7776H53.2193V30.2776H60.2539V29.7776ZM58.3546 26.6C58.7112 27.8927 59.2905 29.0971 60.0497 30.1718L60.4581 29.8834C59.7313 28.8545 59.1774 27.7026 58.8366 26.4671L58.3546 26.6ZM53.2193 26.7835H58.5956V26.2835H53.2193V26.7835ZM51.6723 28.2806C51.6723 27.4619 52.3598 26.7835 53.2193 26.7835V26.2835C52.097 26.2835 51.1723 27.1726 51.1723 28.2806H51.6723ZM69.9455 33.4061C64.3602 33.4061 59.828 28.99 59.828 23.5771H59.328C59.328 29.2794 64.0975 33.9061 69.9455 33.9061V33.4061ZM80.0629 23.5771C80.0629 28.99 75.5307 33.4061 69.9455 33.4061V33.9061C75.7934 33.9061 80.5629 29.2794 80.5629 23.5771H80.0629ZM69.9455 13.7481C75.5307 13.7481 80.0629 18.1642 80.0629 23.5771H80.5629C80.5629 17.8748 75.7934 13.2481 69.9455 13.2481V13.7481ZM59.828 23.5771C59.828 18.1642 64.3602 13.7481 69.9455 13.7481V13.2481C64.0975 13.2481 59.328 17.8748 59.328 23.5771H59.828ZM69.9421 22.5109C69.0677 22.5109 68.4324 21.9199 68.4324 21.2802H67.9324C67.9324 22.2734 68.8759 23.0109 69.9421 23.0109V22.5109ZM73.5516 25.7969C73.5516 23.9615 71.9082 22.5109 69.9421 22.5109V23.0109C71.6809 23.0109 73.0516 24.2841 73.0516 25.7969H73.5516ZM70.7961 28.9893C72.3584 28.6431 73.5516 27.358 73.5516 25.7969H73.0516C73.0516 27.0857 72.0605 28.197 70.6879 28.5011L70.7961 28.9893ZM70.992 29.0811V28.7452H70.492V29.0811H70.992ZM69.9421 30.1088C70.5152 30.1088 70.992 29.6552 70.992 29.0811H70.492C70.492 29.3659 70.2524 29.6088 69.9421 29.6088V30.1088ZM68.8923 29.0811C68.8923 29.6552 69.3691 30.1088 69.9421 30.1088V29.6088C69.6318 29.6088 69.3923 29.3659 69.3923 29.0811H68.8923ZM68.8923 28.7452V29.0811H69.3923V28.7452H68.8923ZM66.3327 25.7969C66.3327 27.358 67.5259 28.6431 69.0882 28.9893L69.1964 28.5011C67.8238 28.197 66.8327 27.0857 66.8327 25.7969H66.3327ZM67.3826 24.7693C66.8095 24.7693 66.3327 25.2228 66.3327 25.7969H66.8327C66.8327 25.5121 67.0723 25.2693 67.3826 25.2693V24.7693ZM68.4324 25.7969C68.4324 25.2228 67.9556 24.7693 67.3826 24.7693V25.2693C67.6929 25.2693 67.9324 25.5121 67.9324 25.7969H68.4324ZM69.9421 27.0276C69.0677 27.0276 68.4324 26.4366 68.4324 25.7969H67.9324C67.9324 26.7901 68.8759 27.5276 69.9421 27.5276V27.0276ZM71.4518 25.7969C71.4518 26.4366 70.8166 27.0276 69.9421 27.0276V27.5276C71.0084 27.5276 71.9518 26.7901 71.9518 25.7969H71.4518ZM69.9421 24.5661C70.8166 24.5661 71.4518 25.1571 71.4518 25.7969H71.9518C71.9518 24.8036 71.0084 24.0661 69.9421 24.0661V24.5661ZM66.3327 21.2802C66.3327 23.1155 67.9761 24.5661 69.9421 24.5661V24.0661C68.2034 24.0661 66.8327 22.7929 66.8327 21.2802H66.3327ZM69.0882 18.0878C67.5259 18.4341 66.3327 19.7191 66.3327 21.2802H66.8327C66.8327 19.9915 67.8238 18.8802 69.1964 18.576L69.0882 18.0878ZM68.8923 17.9275V18.3319H69.3923V17.9275H68.8923ZM69.9421 16.8999C69.3691 16.8999 68.8923 17.3534 68.8923 17.9275H69.3923C69.3923 17.6427 69.6318 17.3999 69.9421 17.3999V16.8999ZM70.992 17.9275C70.992 17.3534 70.5152 16.8999 69.9421 16.8999V17.3999C70.2524 17.3999 70.492 17.6427 70.492 17.9275H70.992ZM70.992 18.3319V17.9275H70.492V18.3319H70.992ZM73.5516 21.2802C73.5516 19.7191 72.3584 18.4341 70.7961 18.0878L70.6879 18.576C72.0605 18.8802 73.0516 19.9915 73.0516 21.2802H73.5516ZM72.5017 22.3079C73.0748 22.3079 73.5516 21.8543 73.5516 21.2802H73.0516C73.0516 21.565 72.812 21.8079 72.5017 21.8079V22.3079ZM71.4518 21.2802C71.4518 21.8543 71.9286 22.3079 72.5017 22.3079V21.8079C72.1914 21.8079 71.9518 21.565 71.9518 21.2802H71.4518ZM69.9421 20.0495C70.8166 20.0495 71.4518 20.6405 71.4518 21.2802H71.9518C71.9518 20.287 71.0084 19.5495 69.9421 19.5495V20.0495ZM68.4324 21.2802C68.4324 20.6405 69.0677 20.0495 69.9421 20.0495V19.5495C68.8759 19.5495 67.9324 20.287 67.9324 21.2802H68.4324Z" fill="#FF872C"/>
<path d="M4 57.6626C4 61.1925 6.42671 63.5804 9.58357 63.5804C11.7311 63.5804 13.2558 62.4799 13.9645 61.2548V63.6427C13.9645 66.0721 12.3968 67.3595 10.3137 67.3595C8.38095 67.3595 6.98506 66.4251 6.55556 65.0547H4.62278C5.00934 67.4841 7.22129 68.9999 10.3137 68.9999C13.7712 68.9999 15.9402 66.7781 15.9402 63.6427V52.0147H13.9645V54.0912C13.2773 52.8661 11.7311 51.8279 9.58357 51.8279C6.42671 51.8279 4 54.1119 4 57.6626ZM13.9645 57.6834C13.9645 60.362 12.1177 61.9193 9.97012 61.9193C7.8226 61.9193 5.9972 60.3412 5.9972 57.6626C5.9972 54.984 7.8226 53.4682 9.97012 53.4682C12.1177 53.4682 13.9645 55.0463 13.9645 57.6834Z" fill="white"/>
<path d="M30.4099 57.6834C30.4099 54.0912 27.8114 51.8279 24.4612 51.8279C21.1326 51.8279 18.5126 54.0912 18.5126 57.6834C18.5126 61.2964 21.0467 63.5804 24.3753 63.5804C27.7255 63.5804 30.4099 61.2964 30.4099 57.6834ZM20.5098 57.6834C20.5098 54.8179 22.3781 53.4682 24.4398 53.4682C26.4584 53.4682 28.4127 54.8179 28.4127 57.6834C28.4127 60.5696 26.4155 61.9193 24.3753 61.9193C22.3352 61.9193 20.5098 60.5696 20.5098 57.6834Z" fill="white"/>
<path d="M34.1032 63.3937H36.5729V53.8837H38.7634V51.9526H36.5729V51.1428C36.5729 49.8346 37.0883 49.3363 38.5916 49.3363V47.3637C35.4991 47.3637 34.1032 48.5057 34.1032 51.1428V51.9526H32.7073V53.8837H34.1032V63.3937Z" fill="white"/>
<path d="M40.933 63.3937H43.3812V51.9526H40.933V63.3937ZM42.1786 50.4368C43.0376 50.4368 43.7248 49.7723 43.7248 48.921C43.7248 48.0697 43.0376 47.4052 42.1786 47.4052C41.2981 47.4052 40.6109 48.0697 40.6109 48.921C40.6109 49.7723 41.2981 50.4368 42.1786 50.4368Z" fill="white"/>
<path d="M54.9923 63.3937H57.419V56.6453C57.419 53.4476 55.3359 51.7657 52.5656 51.7657C51.1482 51.7657 49.8382 52.3264 49.0436 53.2607V51.9526H46.5955V63.3937H49.0436V56.9983C49.0436 54.9011 50.2248 53.8214 52.0287 53.8214C53.8111 53.8214 54.9923 54.9011 54.9923 56.9983V63.3937Z" fill="white"/>
<path d="M59.7257 57.6212C59.7257 61.1512 62.1954 63.5806 65.2663 63.5806C67.2421 63.5806 68.6594 62.667 69.4111 61.691V63.3937H71.8807V51.9526H69.4111V53.6137C68.6809 52.6793 67.3065 51.7657 65.3093 51.7657C62.1954 51.7657 59.7257 54.0913 59.7257 57.6212ZM69.4111 57.6628C69.4111 60.1337 67.6716 61.5249 65.8247 61.5249C63.9993 61.5249 62.2383 60.0922 62.2383 57.6212C62.2383 55.1503 63.9993 53.8214 65.8247 53.8214C67.6716 53.8214 69.4111 55.2126 69.4111 57.6628Z" fill="white"/>
<path d="M83.4931 63.3937H85.9198V56.6453C85.9198 53.4476 83.8367 51.7657 81.0664 51.7657C79.6491 51.7657 78.3391 52.3264 77.5445 53.2607V51.9526H75.0963V63.3937H77.5445V56.9983C77.5445 54.9011 78.7256 53.8214 80.5296 53.8214C82.312 53.8214 83.4931 54.9011 83.4931 56.9983V63.3937Z" fill="white"/>
<path d="M88.2266 57.6628C88.2266 61.255 90.6318 63.5806 94.0249 63.5806C96.9241 63.5806 98.8139 62.0233 99.4796 59.7807H96.8382C96.3872 60.9643 95.4852 61.5872 94.0249 61.5872C92.0492 61.5872 90.7392 60.1752 90.7392 57.6628C90.7392 55.1711 92.0492 53.7591 94.0249 53.7591C95.4852 53.7591 96.4301 54.4651 96.8382 55.5656H99.4796C98.8139 53.1569 96.9241 51.7657 94.0249 51.7657C90.6318 51.7657 88.2266 54.0913 88.2266 57.6628Z" fill="white"/>
<path d="M106.902 53.7591C108.727 53.7591 110.166 54.8804 110.209 56.6453H103.659C103.917 54.8388 105.248 53.7591 106.902 53.7591ZM112.442 59.9884H109.801C109.35 60.8812 108.512 61.5872 107.009 61.5872C105.205 61.5872 103.809 60.4452 103.637 58.5556H112.679C112.743 58.1611 112.764 57.7874 112.764 57.3928C112.764 54.029 110.381 51.7657 107.009 51.7657C103.509 51.7657 101.103 54.0705 101.103 57.6628C101.103 61.255 103.616 63.5806 107.009 63.5806C109.908 63.5806 111.777 61.9817 112.442 59.9884Z" fill="white"/>
<path d="M124 60.196C123.871 56.0639 117.192 57.3513 117.192 55.0465C117.192 54.2782 117.88 53.7591 119.19 53.7591C120.521 53.7591 121.316 54.4443 121.401 55.441H123.85C123.721 53.1569 121.96 51.7657 119.275 51.7657C116.484 51.7657 114.723 53.24 114.723 55.0672C114.723 59.2616 121.595 57.9742 121.595 60.2168C121.595 61.0058 120.843 61.5872 119.426 61.5872C118.073 61.5872 117.149 60.8189 117.063 59.8845H114.529C114.637 61.961 116.634 63.5806 119.469 63.5806C122.261 63.5806 124 62.1271 124 60.196Z" fill="white"/>
</g>
<defs>
<filter id="filter0_d" x="0" y="0.75" width="128" height="76.2499" filterUnits="userSpaceOnUse" color-interpolation-filters="sRGB">
<feFlood flood-opacity="0" result="BackgroundImageFix"/>
<feColorMatrix in="SourceAlpha" type="matrix" values="0 0 0 0 0 0 0 0 0 0 0 0 0 0 0 0 0 0 127 0"/>
<feOffset dy="4"/>
<feGaussianBlur stdDeviation="2"/>
<feColorMatrix type="matrix" values="0 0 0 0 0 0 0 0 0 0 0 0 0 0 0 0 0 0 0.25 0"/>
<feBlend mode="normal" in2="BackgroundImageFix" result="effect1_dropShadow"/>
<feBlend mode="normal" in="SourceGraphic" in2="effect1_dropShadow" result="shape"/>
</filter>
</defs>
</svg>
